<svg width="205" height="540" viewBox="0 0 205 540" fill="none" xmlns="http://www.w3.org/2000/svg">
<g id="svg_1">
<path d="M205 177.445C205 118.083 186.234 71.007 147.185 39.9578C113.121 12.8723 68.2765 1.8122 19.7565 0.00999081C11.5777 -0.293801 4.93974 6.37038 4.93974 14.549V54.0391C4.93974 62.2177 11.5886 68.8031 19.7646 69.1752C58.8863 70.9558 86.3713 79.9184 104.125 94.0352C122.501 108.646 135.843 133.145 135.843 177.445V367.491C135.843 375.67 142.478 382.3 150.663 382.3H190.181C198.365 382.3 205 375.67 205 367.491V177.445Z" fill="white"/>
</g>
<path d="M0 362.555C-5.19324e-06 421.917 18.7659 468.993 57.8151 500.042C91.8794 527.128 136.723 538.188 185.243 539.99C193.422 540.294 200.06 533.63 200.06 525.451V485.961C200.06 477.782 193.411 471.197 185.235 470.825C146.114 469.044 118.629 460.082 100.875 445.965C82.4992 431.354 69.1566 406.855 69.1566 362.555L69.1566 172.509C69.1566 164.33 62.5218 157.7 54.3374 157.7H14.8193C6.63484 157.7 1.73417e-05 164.33 1.66262e-05 172.509L0 362.555Z" fill="white"/>
</svg>
