<svg width="1920" height="395" viewBox="0 0 1920 395" fill="none" xmlns="http://www.w3.org/2000/svg">
<g clip-path="url(#clip0_17_2)">
<path d="M357.845 171.019H408.278V388.356H357.845V365.573C337.171 384.893 314.94 394.578 291.104 394.578C261.045 394.578 236.205 383.739 216.584 362.01C197.114 339.83 187.328 312.18 187.328 279.01C187.328 246.442 197.063 219.294 216.584 197.565C236.054 175.836 260.493 164.997 289.799 164.997C315.091 164.997 337.773 175.435 357.845 196.26V171.019ZM238.664 279.01C238.664 299.835 244.234 316.797 255.425 329.894C266.866 343.142 281.318 349.766 298.731 349.766C317.349 349.766 332.353 343.393 343.795 330.597C355.236 317.349 360.957 300.538 360.957 280.164C360.957 259.79 355.236 242.98 343.795 229.732C332.353 216.785 317.449 210.311 299.183 210.311C281.921 210.311 267.518 216.885 255.876 229.932C244.385 243.18 238.664 259.539 238.664 279.01Z" fill="black"/>
<path d="M471.607 171.019H521.839V190.439C531.072 180.754 539.252 174.13 546.378 170.567C553.654 166.854 562.285 164.997 572.272 164.997C585.519 164.997 599.37 169.313 613.772 177.944L590.789 223.91C581.254 217.086 571.97 213.623 562.888 213.623C535.539 213.623 521.839 234.298 521.839 275.648V388.356H471.607V171.019Z" fill="black"/>
<path d="M707.31 11.4414V241.273L778.067 170.969H845.46L751.069 262.249L852.386 388.356H787.2L715.339 296.624L707.31 304.653V388.356H657.079V11.4414H707.31Z" fill="black"/>
<path d="M979.496 334.661V7.62762H929.264V334.661V384.843H1103.9V334.661H979.496Z" fill="black"/>
<path d="M50.2318 342.239V15.2552H0V342.239V392.471H174.632V342.239H50.2318Z" fill="black"/>
<path d="M1287.11 159.578H1337.54V376.914H1287.11V354.132C1266.43 373.452 1244.2 383.137 1220.37 383.137C1190.31 383.137 1165.47 372.298 1145.85 350.569C1126.38 328.389 1116.59 300.739 1116.59 267.569C1116.59 235.001 1126.33 207.852 1145.85 186.124C1165.32 164.395 1189.76 153.556 1219.06 153.556C1244.35 153.556 1267.04 163.994 1287.11 184.819V159.578ZM1167.93 267.569C1167.93 288.394 1173.5 305.355 1184.69 318.453C1196.13 331.701 1210.58 338.325 1228 338.325C1246.61 338.325 1261.62 331.952 1273.06 319.155C1284.5 305.907 1290.22 289.096 1290.22 268.723C1290.22 248.349 1284.5 231.538 1273.06 218.29C1261.62 205.343 1246.71 198.87 1228.45 198.87C1211.18 198.87 1196.78 205.444 1185.14 218.491C1173.65 231.689 1167.93 248.098 1167.93 267.569Z" fill="black"/>
<path d="M1451.1 0V184.769C1471.18 163.943 1493.96 153.506 1519.4 153.506C1548.71 153.506 1573.09 164.445 1592.61 186.324C1612.09 208.053 1621.87 235.101 1621.87 267.569C1621.87 301.04 1612.04 328.69 1592.41 350.569C1572.94 372.298 1548.3 383.137 1518.55 383.137C1493.41 383.137 1470.92 373.452 1451.15 354.132V376.914H1400.92V0H1451.1ZM1570.48 269.777C1570.48 248.951 1564.81 231.99 1553.52 218.892C1542.08 205.494 1527.73 198.82 1510.47 198.82C1492 198.82 1477 205.293 1465.4 218.24C1453.96 231.036 1448.24 247.697 1448.24 268.221C1448.24 289.347 1453.91 306.259 1465.2 318.854C1476.49 331.801 1491.4 338.274 1509.82 338.274C1527.23 338.274 1541.63 331.801 1553.12 318.854C1564.71 305.807 1570.48 289.448 1570.48 269.777Z" fill="black"/>
<path d="M1801.27 196.612L1759.77 218.692C1753.25 205.293 1745.12 198.619 1735.43 198.619C1730.82 198.619 1726.9 200.124 1723.59 203.185C1720.33 206.247 1718.67 210.161 1718.67 214.878C1718.67 223.208 1728.36 231.488 1747.68 239.668C1774.32 251.109 1792.24 261.697 1801.47 271.332C1810.7 281.017 1815.32 294.014 1815.32 310.373C1815.32 331.349 1807.59 348.913 1792.14 363.014C1777.13 376.412 1758.97 383.087 1737.69 383.087C1701.26 383.087 1675.41 365.322 1660.26 329.744L1703.12 309.872C1709.09 320.309 1713.6 326.933 1716.71 329.744C1722.84 335.414 1730.11 338.224 1738.59 338.224C1755.55 338.224 1764.04 330.496 1764.04 315.04C1764.04 306.108 1757.51 297.778 1744.41 290.05C1739.35 287.541 1734.28 285.082 1729.26 282.673C1724.19 280.315 1719.07 277.856 1713.85 275.296C1699.25 268.171 1689.01 260.995 1683.04 253.869C1675.46 244.786 1671.65 233.094 1671.65 218.842C1671.65 199.974 1678.12 184.317 1691.07 171.972C1704.32 159.628 1720.38 153.455 1739.3 153.455C1767.05 153.506 1787.72 167.908 1801.27 196.612Z" fill="black"/>
<path d="M1857.98 344.296C1857.98 335.966 1861.04 328.74 1867.11 322.668C1873.23 316.546 1880.51 313.535 1888.99 313.535C1897.47 313.535 1904.74 316.596 1910.87 322.668C1916.99 328.79 1920 336.066 1920 344.547C1920 353.178 1916.94 360.555 1910.87 366.627C1904.9 372.599 1897.62 375.559 1888.99 375.559C1880.21 375.559 1872.83 372.599 1866.91 366.627C1860.94 360.655 1857.98 353.229 1857.98 344.296Z" fill="black"/>
</g>
<defs>
<clipPath id="clip0_17_2">
<rect width="1920" height="394.628" fill="white"/>
</clipPath>
</defs>
</svg>
